<mxfile host="Electron" agent="Mozilla/5.0 (X11; Linux x86_64) AppleWebKit/537.36 (KHTML, like Gecko) draw.io/25.0.1 Chrome/128.0.6613.186 Electron/32.2.6 Safari/537.36" version="25.0.1">
  <diagram name="Page-1" id="2YBvvXClWsGukQMizWep">
    <mxGraphModel dx="1120" dy="547" grid="1" gridSize="10" guides="1" tooltips="1" connect="1" arrows="1" fold="1" page="1" pageScale="1" pageWidth="850" pageHeight="1100" math="0" shadow="0">
      <root>
        <mxCell id="0" />
        <mxCell id="1" parent="0" />
        <mxCell id="u3WzdAwqLOBnF8deBetn-1" value="&lt;font style=&quot;font-size: 24px;&quot;&gt;Denarius Front-End UML Sequence Diagrams&lt;/font&gt;" style="text;html=1;align=center;verticalAlign=middle;whiteSpace=wrap;rounded=0;" parent="1" vertex="1">
          <mxGeometry x="80" width="690" height="30" as="geometry" />
        </mxCell>
        <mxCell id="u3WzdAwqLOBnF8deBetn-41" value="sd: project creation" style="shape=umlFrame;whiteSpace=wrap;html=1;pointerEvents=0;" parent="1" vertex="1">
          <mxGeometry x="180" y="76" width="490" height="240" as="geometry" />
        </mxCell>
        <mxCell id="jNevdlU0T2KtlOtVJkwK-1" value=":UI" style="shape=umlLifeline;perimeter=lifelinePerimeter;whiteSpace=wrap;html=1;container=1;dropTarget=0;collapsible=0;recursiveResize=0;outlineConnect=0;portConstraint=eastwest;newEdgeStyle={&quot;curved&quot;:0,&quot;rounded&quot;:0};" parent="1" vertex="1">
          <mxGeometry x="263" y="86" width="40" height="230" as="geometry" />
        </mxCell>
        <mxCell id="jNevdlU0T2KtlOtVJkwK-2" value="" style="html=1;points=[[0,0,0,0,5],[0,1,0,0,-5],[1,0,0,0,5],[1,1,0,0,-5]];perimeter=orthogonalPerimeter;outlineConnect=0;targetShapes=umlLifeline;portConstraint=eastwest;newEdgeStyle={&quot;curved&quot;:0,&quot;rounded&quot;:0};" parent="jNevdlU0T2KtlOtVJkwK-1" vertex="1">
          <mxGeometry x="15" y="50" width="10" height="110" as="geometry" />
        </mxCell>
        <mxCell id="jNevdlU0T2KtlOtVJkwK-7" value="1: (name)" style="html=1;verticalAlign=bottom;endArrow=block;curved=0;rounded=0;" parent="1" edge="1">
          <mxGeometry width="80" relative="1" as="geometry">
            <mxPoint x="288" y="160" as="sourcePoint" />
            <mxPoint x="364.8800000000001" y="160" as="targetPoint" />
          </mxGeometry>
        </mxCell>
        <mxCell id="jNevdlU0T2KtlOtVJkwK-8" value=":ProjectConstructor" style="shape=umlLifeline;perimeter=lifelinePerimeter;whiteSpace=wrap;html=1;container=1;dropTarget=0;collapsible=0;recursiveResize=0;outlineConnect=0;portConstraint=eastwest;newEdgeStyle={&quot;curved&quot;:0,&quot;rounded&quot;:0};" parent="1" vertex="1">
          <mxGeometry x="313" y="86" width="115" height="190" as="geometry" />
        </mxCell>
        <mxCell id="jNevdlU0T2KtlOtVJkwK-15" value="" style="html=1;points=[[0,0,0,0,5],[0,1,0,0,-5],[1,0,0,0,5],[1,1,0,0,-5]];perimeter=orthogonalPerimeter;outlineConnect=0;targetShapes=umlLifeline;portConstraint=eastwest;newEdgeStyle={&quot;curved&quot;:0,&quot;rounded&quot;:0};" parent="jNevdlU0T2KtlOtVJkwK-8" vertex="1">
          <mxGeometry x="51.87" y="50" width="11.25" height="120" as="geometry" />
        </mxCell>
        <mxCell id="jNevdlU0T2KtlOtVJkwK-29" value="" style="shape=umlDestroy;whiteSpace=wrap;html=1;strokeWidth=3;targetShapes=umlLifeline;" parent="jNevdlU0T2KtlOtVJkwK-8" vertex="1">
          <mxGeometry x="53.75" y="180" width="7.5" height="10" as="geometry" />
        </mxCell>
        <mxCell id="jNevdlU0T2KtlOtVJkwK-16" value="" style="ellipse;html=1;shape=startState;fillColor=#000000;strokeColor=#ff0000;" parent="1" vertex="1">
          <mxGeometry x="180" y="126" width="30" height="30" as="geometry" />
        </mxCell>
        <mxCell id="jNevdlU0T2KtlOtVJkwK-17" value="" style="edgeStyle=orthogonalEdgeStyle;html=1;verticalAlign=bottom;endArrow=open;endSize=8;strokeColor=#ff0000;rounded=0;entryX=0;entryY=0;entryDx=0;entryDy=5;entryPerimeter=0;" parent="1" source="jNevdlU0T2KtlOtVJkwK-16" target="jNevdlU0T2KtlOtVJkwK-2" edge="1">
          <mxGeometry relative="1" as="geometry">
            <mxPoint x="283" y="151" as="targetPoint" />
          </mxGeometry>
        </mxCell>
        <mxCell id="jNevdlU0T2KtlOtVJkwK-18" value="Form submitted" style="text;html=1;align=center;verticalAlign=middle;whiteSpace=wrap;rounded=0;" parent="1" vertex="1">
          <mxGeometry x="210" y="146" width="60" height="30" as="geometry" />
        </mxCell>
        <mxCell id="jNevdlU0T2KtlOtVJkwK-19" value="Projects" style="shape=umlLifeline;perimeter=lifelinePerimeter;whiteSpace=wrap;html=1;container=1;dropTarget=0;collapsible=0;recursiveResize=0;outlineConnect=0;portConstraint=eastwest;newEdgeStyle={&quot;curved&quot;:0,&quot;rounded&quot;:0};" parent="1" vertex="1">
          <mxGeometry x="433" y="86" width="50" height="230" as="geometry" />
        </mxCell>
        <mxCell id="jNevdlU0T2KtlOtVJkwK-20" value="" style="html=1;points=[[0,0,0,0,5],[0,1,0,0,-5],[1,0,0,0,5],[1,1,0,0,-5]];perimeter=orthogonalPerimeter;outlineConnect=0;targetShapes=umlLifeline;portConstraint=eastwest;newEdgeStyle={&quot;curved&quot;:0,&quot;rounded&quot;:0};" parent="jNevdlU0T2KtlOtVJkwK-19" vertex="1">
          <mxGeometry x="20" y="50" width="10" height="30" as="geometry" />
        </mxCell>
        <mxCell id="jNevdlU0T2KtlOtVJkwK-21" value="2: add(this)" style="html=1;verticalAlign=bottom;endArrow=block;curved=0;rounded=0;entryX=-0.2;entryY=0.5;entryDx=0;entryDy=0;entryPerimeter=0;" parent="1" source="jNevdlU0T2KtlOtVJkwK-15" target="jNevdlU0T2KtlOtVJkwK-20" edge="1">
          <mxGeometry width="80" relative="1" as="geometry">
            <mxPoint x="503" y="186" as="sourcePoint" />
            <mxPoint x="583" y="186" as="targetPoint" />
          </mxGeometry>
        </mxCell>
        <mxCell id="jNevdlU0T2KtlOtVJkwK-23" value="PubSub" style="shape=umlLifeline;perimeter=lifelinePerimeter;whiteSpace=wrap;html=1;container=1;dropTarget=0;collapsible=0;recursiveResize=0;outlineConnect=0;portConstraint=eastwest;newEdgeStyle={&quot;curved&quot;:0,&quot;rounded&quot;:0};" parent="1" vertex="1">
          <mxGeometry x="488" y="86" width="55" height="230" as="geometry" />
        </mxCell>
        <mxCell id="jNevdlU0T2KtlOtVJkwK-24" value="" style="html=1;points=[[0,0,0,0,5],[0,1,0,0,-5],[1,0,0,0,5],[1,1,0,0,-5]];perimeter=orthogonalPerimeter;outlineConnect=0;targetShapes=umlLifeline;portConstraint=eastwest;newEdgeStyle={&quot;curved&quot;:0,&quot;rounded&quot;:0};" parent="jNevdlU0T2KtlOtVJkwK-23" vertex="1">
          <mxGeometry x="22.5" y="60" width="10" height="110" as="geometry" />
        </mxCell>
        <mxCell id="jNevdlU0T2KtlOtVJkwK-25" value="3" style="html=1;verticalAlign=bottom;endArrow=block;curved=0;rounded=0;" parent="1" source="jNevdlU0T2KtlOtVJkwK-15" target="jNevdlU0T2KtlOtVJkwK-24" edge="1">
          <mxGeometry x="-0.4611" width="80" relative="1" as="geometry">
            <mxPoint x="503" y="186" as="sourcePoint" />
            <mxPoint x="513" y="186" as="targetPoint" />
            <mxPoint as="offset" />
          </mxGeometry>
        </mxCell>
        <mxCell id="jNevdlU0T2KtlOtVJkwK-26" value="&lt;font style=&quot;font-size: 10px;&quot;&gt;Parentheses represent function call.&lt;/font&gt;" style="text;html=1;align=center;verticalAlign=middle;whiteSpace=wrap;rounded=0;" parent="1" vertex="1">
          <mxGeometry x="293" y="166" width="60" height="40" as="geometry" />
        </mxCell>
        <mxCell id="jNevdlU0T2KtlOtVJkwK-27" value="4:&amp;nbsp;Project&#39;s tab added to sidebar" style="html=1;verticalAlign=bottom;endArrow=block;curved=0;rounded=0;" parent="1" edge="1">
          <mxGeometry width="80" relative="1" as="geometry">
            <mxPoint x="510.5" y="227.5" as="sourcePoint" />
            <mxPoint x="288" y="227.5" as="targetPoint" />
          </mxGeometry>
        </mxCell>
        <mxCell id="jNevdlU0T2KtlOtVJkwK-30" value="&lt;font style=&quot;font-size: 10px;&quot;&gt;The constructor terminates but the object remains alive,&lt;/font&gt;" style="text;html=1;align=center;verticalAlign=middle;whiteSpace=wrap;rounded=0;" parent="1" vertex="1">
          <mxGeometry x="300.5" y="276" width="140" height="30" as="geometry" />
        </mxCell>
        <mxCell id="jNevdlU0T2KtlOtVJkwK-37" value="sd: to-do creation" style="shape=umlFrame;whiteSpace=wrap;html=1;pointerEvents=0;" parent="1" vertex="1">
          <mxGeometry x="95" y="345" width="660" height="326" as="geometry" />
        </mxCell>
        <mxCell id="jNevdlU0T2KtlOtVJkwK-45" value=":UI" style="shape=umlLifeline;perimeter=lifelinePerimeter;whiteSpace=wrap;html=1;container=1;dropTarget=0;collapsible=0;recursiveResize=0;outlineConnect=0;portConstraint=eastwest;newEdgeStyle={&quot;curved&quot;:0,&quot;rounded&quot;:0};" parent="1" vertex="1">
          <mxGeometry x="278" y="361" width="50" height="300" as="geometry" />
        </mxCell>
        <mxCell id="jNevdlU0T2KtlOtVJkwK-46" value="" style="html=1;points=[[0,0,0,0,5],[0,1,0,0,-5],[1,0,0,0,5],[1,1,0,0,-5]];perimeter=orthogonalPerimeter;outlineConnect=0;targetShapes=umlLifeline;portConstraint=eastwest;newEdgeStyle={&quot;curved&quot;:0,&quot;rounded&quot;:0};" parent="jNevdlU0T2KtlOtVJkwK-45" vertex="1">
          <mxGeometry x="20" y="60" width="10" height="180" as="geometry" />
        </mxCell>
        <mxCell id="jNevdlU0T2KtlOtVJkwK-49" value=":ToDo" style="shape=umlLifeline;perimeter=lifelinePerimeter;whiteSpace=wrap;html=1;container=1;dropTarget=0;collapsible=0;recursiveResize=0;outlineConnect=0;portConstraint=eastwest;newEdgeStyle={&quot;curved&quot;:0,&quot;rounded&quot;:0};" parent="1" vertex="1">
          <mxGeometry x="358" y="361" width="50" height="300" as="geometry" />
        </mxCell>
        <mxCell id="jNevdlU0T2KtlOtVJkwK-50" value="" style="html=1;points=[[0,0,0,0,5],[0,1,0,0,-5],[1,0,0,0,5],[1,1,0,0,-5]];perimeter=orthogonalPerimeter;outlineConnect=0;targetShapes=umlLifeline;portConstraint=eastwest;newEdgeStyle={&quot;curved&quot;:0,&quot;rounded&quot;:0};" parent="jNevdlU0T2KtlOtVJkwK-49" vertex="1">
          <mxGeometry x="20" y="60" width="10" height="30" as="geometry" />
        </mxCell>
        <mxCell id="jNevdlU0T2KtlOtVJkwK-51" value="2: initialise" style="html=1;verticalAlign=bottom;endArrow=block;curved=0;rounded=0;entryX=0;entryY=0;entryDx=0;entryDy=5;" parent="1" source="jNevdlU0T2KtlOtVJkwK-46" target="jNevdlU0T2KtlOtVJkwK-50" edge="1">
          <mxGeometry relative="1" as="geometry">
            <mxPoint x="278" y="556" as="sourcePoint" />
          </mxGeometry>
        </mxCell>
        <mxCell id="jNevdlU0T2KtlOtVJkwK-52" value="3: return" style="html=1;verticalAlign=bottom;endArrow=open;dashed=1;endSize=8;curved=0;rounded=0;exitX=0;exitY=1;exitDx=0;exitDy=-5;exitPerimeter=0;" parent="1" source="jNevdlU0T2KtlOtVJkwK-50" target="jNevdlU0T2KtlOtVJkwK-46" edge="1">
          <mxGeometry relative="1" as="geometry">
            <mxPoint x="278" y="626" as="targetPoint" />
          </mxGeometry>
        </mxCell>
        <mxCell id="jNevdlU0T2KtlOtVJkwK-54" value=":Project" style="shape=umlLifeline;perimeter=lifelinePerimeter;whiteSpace=wrap;html=1;container=1;dropTarget=0;collapsible=0;recursiveResize=0;outlineConnect=0;portConstraint=eastwest;newEdgeStyle={&quot;curved&quot;:0,&quot;rounded&quot;:0};" parent="1" vertex="1">
          <mxGeometry x="418" y="361" width="75" height="300" as="geometry" />
        </mxCell>
        <mxCell id="jNevdlU0T2KtlOtVJkwK-55" value="" style="html=1;points=[[0,0,0,0,5],[0,1,0,0,-5],[1,0,0,0,5],[1,1,0,0,-5]];perimeter=orthogonalPerimeter;outlineConnect=0;targetShapes=umlLifeline;portConstraint=eastwest;newEdgeStyle={&quot;curved&quot;:0,&quot;rounded&quot;:0};" parent="jNevdlU0T2KtlOtVJkwK-54" vertex="1">
          <mxGeometry x="32.5" y="110" width="10" height="140" as="geometry" />
        </mxCell>
        <mxCell id="jNevdlU0T2KtlOtVJkwK-56" value="4: addToDo()" style="html=1;verticalAlign=bottom;endArrow=block;curved=0;rounded=0;entryX=0;entryY=0;entryDx=0;entryDy=5;entryPerimeter=0;" parent="1" source="jNevdlU0T2KtlOtVJkwK-46" target="jNevdlU0T2KtlOtVJkwK-55" edge="1">
          <mxGeometry width="80" relative="1" as="geometry">
            <mxPoint x="308" y="470.5" as="sourcePoint" />
            <mxPoint x="418" y="471" as="targetPoint" />
          </mxGeometry>
        </mxCell>
        <mxCell id="jNevdlU0T2KtlOtVJkwK-57" value="" style="ellipse;html=1;shape=endState;fillColor=#000000;strokeColor=#ff0000;" parent="1" vertex="1">
          <mxGeometry x="632" y="236" width="30" height="30" as="geometry" />
        </mxCell>
        <mxCell id="jNevdlU0T2KtlOtVJkwK-61" value="PubSub" style="shape=umlLifeline;perimeter=lifelinePerimeter;whiteSpace=wrap;html=1;container=1;dropTarget=0;collapsible=0;recursiveResize=0;outlineConnect=0;portConstraint=eastwest;newEdgeStyle={&quot;curved&quot;:0,&quot;rounded&quot;:0};" parent="1" vertex="1">
          <mxGeometry x="501.5" y="361" width="56.5" height="300" as="geometry" />
        </mxCell>
        <mxCell id="jNevdlU0T2KtlOtVJkwK-63" value="" style="html=1;points=[[0,0,0,0,5],[0,1,0,0,-5],[1,0,0,0,5],[1,1,0,0,-5]];perimeter=orthogonalPerimeter;outlineConnect=0;targetShapes=umlLifeline;portConstraint=eastwest;newEdgeStyle={&quot;curved&quot;:0,&quot;rounded&quot;:0};" parent="jNevdlU0T2KtlOtVJkwK-61" vertex="1">
          <mxGeometry x="23.25" y="110" width="10" height="140" as="geometry" />
        </mxCell>
        <mxCell id="jNevdlU0T2KtlOtVJkwK-67" value="An arrow &lt;b&gt;to&lt;/b&gt;&amp;nbsp;PubSub implies calling the publish method." style="text;html=1;align=left;verticalAlign=middle;whiteSpace=wrap;rounded=0;" parent="1" vertex="1">
          <mxGeometry x="690" y="146" width="150" height="40" as="geometry" />
        </mxCell>
        <mxCell id="jNevdlU0T2KtlOtVJkwK-68" value="An arrow &lt;b&gt;from&lt;/b&gt;&amp;nbsp;PubSub implies being called with data from an event you subscribed to." style="text;html=1;align=left;verticalAlign=middle;whiteSpace=wrap;rounded=0;" parent="1" vertex="1">
          <mxGeometry x="690" y="226" width="150" height="40" as="geometry" />
        </mxCell>
        <mxCell id="jNevdlU0T2KtlOtVJkwK-69" value="" style="shape=umlLifeline;perimeter=lifelinePerimeter;whiteSpace=wrap;html=1;container=1;dropTarget=0;collapsible=0;recursiveResize=0;outlineConnect=0;portConstraint=eastwest;newEdgeStyle={&quot;curved&quot;:0,&quot;rounded&quot;:0};participant=umlActor;" parent="1" vertex="1">
          <mxGeometry x="178" y="361" width="20" height="300" as="geometry" />
        </mxCell>
        <mxCell id="jNevdlU0T2KtlOtVJkwK-70" value="" style="html=1;points=[[0,0,0,0,5],[0,1,0,0,-5],[1,0,0,0,5],[1,1,0,0,-5]];perimeter=orthogonalPerimeter;outlineConnect=0;targetShapes=umlLifeline;portConstraint=eastwest;newEdgeStyle={&quot;curved&quot;:0,&quot;rounded&quot;:0};" parent="jNevdlU0T2KtlOtVJkwK-69" vertex="1">
          <mxGeometry x="5" y="60" width="10" height="180" as="geometry" />
        </mxCell>
        <mxCell id="jNevdlU0T2KtlOtVJkwK-71" value="1: submit form" style="html=1;verticalAlign=bottom;endArrow=block;curved=0;rounded=0;exitX=1;exitY=0;exitDx=0;exitDy=5;exitPerimeter=0;entryX=0;entryY=0;entryDx=0;entryDy=5;entryPerimeter=0;" parent="1" source="jNevdlU0T2KtlOtVJkwK-70" target="jNevdlU0T2KtlOtVJkwK-46" edge="1">
          <mxGeometry width="80" relative="1" as="geometry">
            <mxPoint x="338" y="471" as="sourcePoint" />
            <mxPoint x="418" y="471" as="targetPoint" />
          </mxGeometry>
        </mxCell>
        <mxCell id="jNevdlU0T2KtlOtVJkwK-73" value="5" style="html=1;verticalAlign=bottom;endArrow=block;curved=0;rounded=0;exitX=1;exitY=0;exitDx=0;exitDy=5;exitPerimeter=0;entryX=0;entryY=0;entryDx=0;entryDy=5;entryPerimeter=0;" parent="1" source="jNevdlU0T2KtlOtVJkwK-55" target="jNevdlU0T2KtlOtVJkwK-63" edge="1">
          <mxGeometry width="80" relative="1" as="geometry">
            <mxPoint x="288" y="460" as="sourcePoint" />
            <mxPoint x="528" y="824" as="targetPoint" />
          </mxGeometry>
        </mxCell>
        <mxCell id="jNevdlU0T2KtlOtVJkwK-74" value="By UI, I mean a JS function that does DOM manipulation. The ones that arrows come &lt;b&gt;from&lt;/b&gt; can be found in the &quot;src/ui/inputs&quot;. The ones that arrows come &lt;b&gt;to&lt;/b&gt;&amp;nbsp;can be found in &quot;src/ui/ouputs&quot;." style="text;html=1;align=right;verticalAlign=middle;whiteSpace=wrap;rounded=0;" parent="1" vertex="1">
          <mxGeometry x="30" y="128.5" width="130" height="135" as="geometry" />
        </mxCell>
        <mxCell id="jNevdlU0T2KtlOtVJkwK-76" value="6" style="html=1;verticalAlign=bottom;endArrow=block;curved=0;rounded=0;" parent="1" edge="1">
          <mxGeometry width="80" relative="1" as="geometry">
            <mxPoint x="524.75" y="496.5" as="sourcePoint" />
            <mxPoint x="309" y="496.5" as="targetPoint" />
          </mxGeometry>
        </mxCell>
        <mxCell id="jNevdlU0T2KtlOtVJkwK-78" value="9" style="html=1;verticalAlign=bottom;endArrow=block;curved=0;rounded=0;exitX=1;exitY=1;exitDx=0;exitDy=-5;exitPerimeter=0;" parent="1" edge="1">
          <mxGeometry width="80" relative="1" as="geometry">
            <mxPoint x="460.5" y="520" as="sourcePoint" />
            <mxPoint x="524.75" y="520" as="targetPoint" />
          </mxGeometry>
        </mxCell>
        <mxCell id="jNevdlU0T2KtlOtVJkwK-80" value="10" style="html=1;verticalAlign=bottom;endArrow=block;curved=0;rounded=0;" parent="1" edge="1">
          <mxGeometry width="80" relative="1" as="geometry">
            <mxPoint x="529.25" y="530" as="sourcePoint" />
            <mxPoint x="302.5" y="530" as="targetPoint" />
          </mxGeometry>
        </mxCell>
        <mxCell id="jNevdlU0T2KtlOtVJkwK-82" value="7: See to-do" style="html=1;verticalAlign=bottom;endArrow=block;curved=0;rounded=0;" parent="1" edge="1">
          <mxGeometry width="80" relative="1" as="geometry">
            <mxPoint x="298" y="499" as="sourcePoint" />
            <mxPoint x="193" y="499" as="targetPoint" />
          </mxGeometry>
        </mxCell>
        <mxCell id="jNevdlU0T2KtlOtVJkwK-84" value="11: See increment" style="html=1;verticalAlign=bottom;endArrow=block;curved=0;rounded=0;" parent="1" edge="1">
          <mxGeometry width="80" relative="1" as="geometry">
            <mxPoint x="298" y="532" as="sourcePoint" />
            <mxPoint x="191.5" y="532" as="targetPoint" />
          </mxGeometry>
        </mxCell>
        <mxCell id="jNevdlU0T2KtlOtVJkwK-85" value="&lt;font style=&quot;font-size: 11px;&quot;&gt;(of counter next to project tab).&lt;/font&gt;" style="text;html=1;align=center;verticalAlign=middle;whiteSpace=wrap;rounded=0;" parent="1" vertex="1">
          <mxGeometry x="208" y="540" width="70" height="50" as="geometry" />
        </mxCell>
        <mxCell id="jNevdlU0T2KtlOtVJkwK-86" value=":Category" style="shape=umlLifeline;perimeter=lifelinePerimeter;whiteSpace=wrap;html=1;container=1;dropTarget=0;collapsible=0;recursiveResize=0;outlineConnect=0;portConstraint=eastwest;newEdgeStyle={&quot;curved&quot;:0,&quot;rounded&quot;:0};" parent="1" vertex="1">
          <mxGeometry x="562" y="361" width="66" height="300" as="geometry" />
        </mxCell>
        <mxCell id="jNevdlU0T2KtlOtVJkwK-88" value="" style="html=1;points=[[0,0,0,0,5],[0,1,0,0,-5],[1,0,0,0,5],[1,1,0,0,-5]];perimeter=orthogonalPerimeter;outlineConnect=0;targetShapes=umlLifeline;portConstraint=eastwest;newEdgeStyle={&quot;curved&quot;:0,&quot;rounded&quot;:0};" parent="jNevdlU0T2KtlOtVJkwK-86" vertex="1">
          <mxGeometry x="28" y="129.5" width="10" height="41" as="geometry" />
        </mxCell>
        <mxCell id="jNevdlU0T2KtlOtVJkwK-87" value="8*" style="html=1;verticalAlign=bottom;endArrow=block;curved=0;rounded=0;" parent="1" edge="1">
          <mxGeometry width="80" relative="1" as="geometry">
            <mxPoint x="535" y="511.5" as="sourcePoint" />
            <mxPoint x="594.5" y="511.5" as="targetPoint" />
          </mxGeometry>
        </mxCell>
        <mxCell id="jNevdlU0T2KtlOtVJkwK-89" value="&lt;font style=&quot;font-size: 11px;&quot;&gt;*After 8, a category may use PubSub to increment the counter by its tab. But this is not gauranteed, so I don&#39;t bother to represent it. Besides, the diagram is complicated enough.&lt;/font&gt;" style="text;html=1;align=center;verticalAlign=middle;whiteSpace=wrap;rounded=0;" parent="1" vertex="1">
          <mxGeometry x="770" y="398" width="70" height="226" as="geometry" />
        </mxCell>
        <mxCell id="jNevdlU0T2KtlOtVJkwK-90" value="12" style="html=1;verticalAlign=bottom;endArrow=block;curved=0;rounded=0;" parent="1" edge="1">
          <mxGeometry width="80" relative="1" as="geometry">
            <mxPoint x="460.5" y="552" as="sourcePoint" />
            <mxPoint x="524.75" y="552" as="targetPoint" />
          </mxGeometry>
        </mxCell>
        <mxCell id="jNevdlU0T2KtlOtVJkwK-91" value=":DataStorage" style="shape=umlLifeline;perimeter=lifelinePerimeter;whiteSpace=wrap;html=1;container=1;dropTarget=0;collapsible=0;recursiveResize=0;outlineConnect=0;portConstraint=eastwest;newEdgeStyle={&quot;curved&quot;:0,&quot;rounded&quot;:0};" parent="1" vertex="1">
          <mxGeometry x="635" y="361" width="100" height="300" as="geometry" />
        </mxCell>
        <mxCell id="jNevdlU0T2KtlOtVJkwK-92" value="" style="html=1;points=[[0,0,0,0,5],[0,1,0,0,-5],[1,0,0,0,5],[1,1,0,0,-5]];perimeter=orthogonalPerimeter;outlineConnect=0;targetShapes=umlLifeline;portConstraint=eastwest;newEdgeStyle={&quot;curved&quot;:0,&quot;rounded&quot;:0};" parent="jNevdlU0T2KtlOtVJkwK-91" vertex="1">
          <mxGeometry x="45" y="170" width="10" height="50" as="geometry" />
        </mxCell>
        <mxCell id="jNevdlU0T2KtlOtVJkwK-93" value="13" style="html=1;verticalAlign=bottom;endArrow=block;curved=0;rounded=0;" parent="1" edge="1">
          <mxGeometry width="80" relative="1" as="geometry">
            <mxPoint x="535" y="561" as="sourcePoint" />
            <mxPoint x="684.5" y="561" as="targetPoint" />
          </mxGeometry>
        </mxCell>
        <mxCell id="jNevdlU0T2KtlOtVJkwK-96" value="" style="ellipse;html=1;shape=startState;fillColor=#000000;strokeColor=#ff0000;" parent="1" vertex="1">
          <mxGeometry x="105" y="411" width="30" height="30" as="geometry" />
        </mxCell>
        <mxCell id="jNevdlU0T2KtlOtVJkwK-97" value="" style="edgeStyle=orthogonalEdgeStyle;html=1;verticalAlign=bottom;endArrow=open;endSize=8;strokeColor=#ff0000;rounded=0;entryX=0;entryY=0;entryDx=0;entryDy=5;entryPerimeter=0;" parent="1" source="jNevdlU0T2KtlOtVJkwK-96" target="jNevdlU0T2KtlOtVJkwK-70" edge="1">
          <mxGeometry relative="1" as="geometry">
            <mxPoint x="380" y="571" as="targetPoint" />
          </mxGeometry>
        </mxCell>
        <mxCell id="jNevdlU0T2KtlOtVJkwK-98" value="" style="ellipse;html=1;shape=endState;fillColor=#000000;strokeColor=#ff0000;" parent="1" vertex="1">
          <mxGeometry x="715" y="547" width="30" height="30" as="geometry" />
        </mxCell>
        <mxCell id="jNevdlU0T2KtlOtVJkwK-99" value="" style="edgeStyle=orthogonalEdgeStyle;rounded=0;orthogonalLoop=1;jettySize=auto;html=1;curved=0;" parent="1" target="jNevdlU0T2KtlOtVJkwK-98" edge="1">
          <mxGeometry relative="1" as="geometry">
            <mxPoint x="690" y="562" as="sourcePoint" />
          </mxGeometry>
        </mxCell>
        <mxCell id="4P7bqzfFCjQpMGWYztmm-1" value=":DataStorage" style="shape=umlLifeline;perimeter=lifelinePerimeter;whiteSpace=wrap;html=1;container=1;dropTarget=0;collapsible=0;recursiveResize=0;outlineConnect=0;portConstraint=eastwest;newEdgeStyle={&quot;curved&quot;:0,&quot;rounded&quot;:0};" parent="1" vertex="1">
          <mxGeometry x="552" y="86" width="80" height="220" as="geometry" />
        </mxCell>
        <mxCell id="4P7bqzfFCjQpMGWYztmm-3" value="" style="html=1;points=[[0,0,0,0,5],[0,1,0,0,-5],[1,0,0,0,5],[1,1,0,0,-5]];perimeter=orthogonalPerimeter;outlineConnect=0;targetShapes=umlLifeline;portConstraint=eastwest;newEdgeStyle={&quot;curved&quot;:0,&quot;rounded&quot;:0};" parent="4P7bqzfFCjQpMGWYztmm-1" vertex="1">
          <mxGeometry x="35" y="150" width="10" height="30" as="geometry" />
        </mxCell>
        <mxCell id="4P7bqzfFCjQpMGWYztmm-2" value="5" style="html=1;verticalAlign=bottom;endArrow=block;curved=0;rounded=0;exitX=0.989;exitY=0.9;exitDx=0;exitDy=0;exitPerimeter=0;" parent="1" edge="1">
          <mxGeometry width="80" relative="1" as="geometry">
            <mxPoint x="375.9962499999999" y="248" as="sourcePoint" />
            <mxPoint x="510" y="248" as="targetPoint" />
          </mxGeometry>
        </mxCell>
        <mxCell id="4P7bqzfFCjQpMGWYztmm-4" value="6" style="html=1;verticalAlign=bottom;endArrow=block;curved=0;rounded=0;" parent="1" target="4P7bqzfFCjQpMGWYztmm-3" edge="1">
          <mxGeometry width="80" relative="1" as="geometry">
            <mxPoint x="520" y="250" as="sourcePoint" />
            <mxPoint x="582.5" y="250" as="targetPoint" />
          </mxGeometry>
        </mxCell>
        <mxCell id="4P7bqzfFCjQpMGWYztmm-5" value="" style="html=1;verticalAlign=bottom;endArrow=block;curved=0;rounded=0;entryX=0;entryY=0.5;entryDx=0;entryDy=0;" parent="1" source="4P7bqzfFCjQpMGWYztmm-1" target="jNevdlU0T2KtlOtVJkwK-57" edge="1">
          <mxGeometry width="80" relative="1" as="geometry">
            <mxPoint x="570" y="290.5" as="sourcePoint" />
            <mxPoint x="650" y="290.5" as="targetPoint" />
          </mxGeometry>
        </mxCell>
        <mxCell id="aMAEFXFLOvGsKEkJi0gM-1" value="For some use cases" style="text;html=1;align=center;verticalAlign=middle;whiteSpace=wrap;rounded=0;" parent="1" vertex="1">
          <mxGeometry x="355" y="30" width="140" height="30" as="geometry" />
        </mxCell>
        <mxCell id="aMAEFXFLOvGsKEkJi0gM-2" value="&lt;font color=&quot;#999999&quot;&gt;Now, I could try to draw sequence diagrams and/or activity diagrams for all the several other use cases of the app. But I think that that would be time-consuming and unnecessary.&lt;/font&gt;" style="text;html=1;align=left;verticalAlign=middle;whiteSpace=wrap;rounded=0;" parent="1" vertex="1">
          <mxGeometry x="44" y="698" width="762" height="32" as="geometry" />
        </mxCell>
        <mxCell id="aMAEFXFLOvGsKEkJi0gM-4" value="" style="rounded=0;whiteSpace=wrap;html=1;" parent="1" vertex="1">
          <mxGeometry y="740" width="850" height="360" as="geometry" />
        </mxCell>
        <mxCell id="aMAEFXFLOvGsKEkJi0gM-5" value="&lt;h1 style=&quot;margin-top: 0px;&quot;&gt;Reflections on the system design:&lt;/h1&gt;&lt;p&gt;I designed this system at the age of fourteen (a year ago), back in the days when I had never typed or read a single line of React code. Back then, I was a vanilla JS purist, isolating myself from the civilisation of opinionated frameworks until I was absolutely confident that I could think for myself, that I could think beyond the conventilality, beyond the frame.&lt;br&gt;&lt;/p&gt;&lt;p&gt;Today, I am grateful to my past self for being such a monk. Now, with a couple of mid-sized projects&#39; experience in React, I retrospectively realise how geniusly simple, decentralised and stateless this system is.&lt;/p&gt;&lt;p&gt;You see, the way React handles communication between components is like this (as far as I, someone who has never read the source code, understands it): one component experiences an event that must be communicated to others (say, the project-creation form is submitted); that changes the &lt;b&gt;central state &lt;/b&gt;(maybe an array of Project instances); React determines which DOM elements should change because of the new state (by creating a new virtual DOM and comparing it to the current one, I presume); and finally, with surgical precision, it changes the necessary DOM elements.&lt;/p&gt;&lt;p&gt;But here, when one component experiences an event, it simply passes the necessary information that through the mediator, PubSub, which calls (literally) all the other components interested in such an event with the event&#39;s data (if any). There is no &lt;b&gt;centralised&lt;/b&gt; &lt;b&gt;state&lt;/b&gt; per-se. There is no need for React&#39;s characteristic composition of components. There in no complicated, expensive construction of virtual DOMs and what not. It&#39;s so simple, so decentralised, so stateless, even a fourteen year old could have made it.&lt;/p&gt;&lt;p&gt;Now, we come full circle as I considering summarising this approach in my own web framework called News!&lt;/p&gt;" style="text;html=1;whiteSpace=wrap;overflow=hidden;rounded=0;" parent="1" vertex="1">
          <mxGeometry x="10" y="740" width="830" height="350" as="geometry" />
        </mxCell>
      </root>
    </mxGraphModel>
  </diagram>
</mxfile>
